<svg xmlns="http://www.w3.org/2000/svg" width="424" height="424"><path fill="#FEE7D0" d="M233.914 32.04c2.773 1.277 4.925 1.084 7.961.96 4.561-.083 7.843.346 12.125 2 2.663.444 5.312.722 8 1v2c3.287.8 4.71 1.097 8 0 4.5 1.5 4.5 1.5 6 3l3 1 2 2c2.328.607 2.328.607 4.938 1 3.483.575 5.048.99 8.062 3 1.328.352 2.662.685 4 1 2.788 1.17 5.48 2.532 8.188 3.875l2.232 1.066c1.9.941 3.746 1.994 5.58 3.059l1 3 2.152.293c3.31.821 5.556 2.165 8.41 4.02l2.817 1.8c2.483 1.788 4.49 3.705 6.621 5.887l2.125 1.063C339 74 339 74 341 77l1.938.875C345 79 345 79 346.438 81.5c1.306 2.666 1.306 2.666 3.769 3.29 3.802 1.648 6.173 4.152 9.043 7.085l1.64 1.605c2.793 2.814 4.226 4.722 5.11 8.52a102.5 102.5 0 0 0 4.313 5.125C398.86 140.373 415.92 185.222 417 229l.062 2.021c1.165 41.802-9.54 85.313-33.882 119.752-1.405 2.651-1.564 4.267-1.18 7.227l2 2.25c2.779 3.821 2.676 7.157 2 11.75a216.129 216.129 0 0 1-2 5 215287.544 215287.544 0 0 1-139.85-.317l-2.971-.008c-15.863-.04-31.727-.072-47.59-.102-16.285-.032-32.57-.07-48.854-.116-10.043-.028-20.087-.05-30.13-.064-6.893-.01-13.786-.029-20.68-.052a4011.26 4011.26 0 0 0-11.919-.025c-3.645-.002-7.29-.012-10.936-.03-1.927-.007-3.854-.005-5.781-.002-20.825-.132-20.825-.132-25.023-3.799L39 371l-2.063-.938C35 369 35 369 34.087 367.156c-1.188-2.36-2.56-3.831-4.398-5.719-8.442-9.463-9.904-19.654-9.47-31.859.284-9.252.123-16.81-3.653-25.347C10.37 290.113 7.109 273.359 6 258l-.199-2.7C4.783 240.335 5.125 225.877 7 211l.441-3.66c2.73-19.841 9.326-38.35 16.614-56.906A118.408 118.408 0 0 0 26 145l1.813-2.258c2.42-3.033 4.31-6.237 6.187-9.617l2-3.555.988-1.772c1.049-1.863 2.124-3.709 3.2-5.556C42.06 119.127 42.06 119.127 43 116l2-1 1-3 2-1 .875-1.938C50 107 50 107 52.063 106L54 105l.5-2 .5-2c1.331-.67 2.665-1.337 4-2a72.98 72.98 0 0 0 3.82-3.555l2.121-2.113 2.184-2.207 2.207-2.184 2.113-2.12 1.923-1.93c1.716-1.819 1.716-1.819 2.667-4.067C77 79 77 79 80 78l2-3 3-1 1-2 3-1 1-2 3-1a321.263 321.263 0 0 0 4-4c6.104-4.319 12.964-7.63 19.563-11.125l2.396-1.272C134.14 43.644 134.14 43.644 143 43v-2l1.625.625c3.208.506 5.388-.471 8.375-1.625v-2l4 1v-2a466.548 466.548 0 0 1 12.799-1.698c6.805-.81 13.509-1.79 20.201-3.302v-1c33.964-4.362 33.964-4.362 43.914 1.04ZM202 31v1h19v-1h-19Zm41 3 4 1Zm11 2 4 1Zm99 52 1 2Zm3 3 1 2Zm3 3 1 2Z"/><path fill="#333232" d="M253 57h1l1 12 1.46-2.371 1.915-3.067 1.898-3.058C262 58 262 58 264 57c.218 13.347-.435 26.668-1 40l2.71-.14c8.817-.264 16.259.049 23.317 5.788 2.54 2.46 4.651 4.802 6.44 7.863 3.769 3.703 7.51 3.668 12.627 4.184.983.12 1.967.238 2.98.36 3.14.378 6.282.726 9.426 1.07 3.143.354 6.285.715 9.425 1.09 1.953.233 3.908.453 5.863.659l2.69.314 2.36.257c2.66.683 4.168 1.675 6.162 3.555 1.602 9.254-3.075 20.48-8 28.188-2.319 3.163-4.698 5.64-8 7.812l-1.813 1.25c-4.375 1.5-8.898.949-13.386.257-5.639-.752-11.244-.807-16.927-.857-1.38-.017-2.76-.044-4.14-.082a328.014 328.014 0 0 0-6.027-.091l-3.61-.06c-3.274.311-3.274.311-5.43 2.955-8.587 13.54-12.08 28.76-11.667 44.628l11 1c-.425 7.867-1.025 15.362-3 23h-3l.996 2.55c9.647 25.037 18.366 49.456 19.004 76.45l2.203-.438c19.376-3.577 19.376-3.577 26.797 1.063 4.023 3.133 7.31 6.11 8.406 11.297.721 9.875-4.507 19.535-10.172 27.273-1.416 1.894-1.416 1.894-2.234 4.805 9.166.113 16.184-1.83 24.466-5.56 5.978-2.593 11.407-3.798 17.756-1.709 2.23.962 4.375 2.019 6.528 3.144 1.453.728 2.906 1.454 4.36 2.18l2.036 1.026c2.252 1.116 4.46 2.147 6.854 2.919l2-1 .313 2.25c.467 2.777.467 2.777 2.25 4.5 2.241 3.509 1.964 7.195 1.437 11.25a199.125 199.125 0 0 1-2 5 215287.544 215287.544 0 0 1-139.85-.317l-2.971-.008c-15.863-.04-31.727-.072-47.59-.102-16.285-.032-32.57-.07-48.854-.116-10.043-.028-20.087-.05-30.13-.064-6.893-.01-13.786-.029-20.68-.052a4011.26 4011.26 0 0 0-11.919-.025c-3.645-.002-7.29-.012-10.936-.03-1.927-.007-3.854-.005-5.781-.002-20.825-.132-20.825-.132-25.023-3.799L39 371l-2.063-.938C35 369 35 369 34.087 367.156c-1.188-2.36-2.56-3.831-4.398-5.719C23.803 354.84 20.224 346.894 20 338l-.152-3.266c-.311-11.882 1.016-23.125 5.777-34.109 2.273-5.397 2.712-9.93 2.813-15.688.202-8.96 2.167-16.205 8.445-22.964 5.079-4.516 8.483-5.361 15.117-4.973l3.375.875c4.825.166 7.125-1.665 11.086-4.25 16.28-10.42 38.422-12.171 57.163-9.21 7.268 1.617 14.018 4.387 20.814 7.398 6.374 2.74 11.525 3.493 18.195 1.335 6.13-2.69 10.542-6.002 13.367-12.148 2.391-7.48 3.767-15.26 5-23h-2c-.32-7.855.643-15.27 2-23h7l.345-1.679a135.71 135.71 0 0 1 4.28-15.571l.788-2.328c4.78-13.947 10.073-27.61 16.15-41.047l1.317-2.942c8.543-18.543 8.543-18.543 16.933-24.058l2.832-1.914C233 104 233 104 235 103c.522-2.424.94-4.803 1.313-7.25C238.689 81.782 244.232 68.203 253 57Z"/><path fill="#343433" d="M253 57h1l1 12 1.46-2.371 1.915-3.067 1.898-3.058C262 58 262 58 264 57c.218 13.347-.435 26.668-1 40l2.71-.14c8.817-.264 16.259.049 23.317 5.788 2.54 2.46 4.651 4.802 6.44 7.863 3.769 3.703 7.51 3.668 12.627 4.184.983.12 1.967.238 2.98.36 3.14.378 6.282.726 9.426 1.07 3.143.354 6.285.715 9.425 1.09 1.953.233 3.908.453 5.863.659l2.69.314 2.36.257c2.66.683 4.168 1.675 6.162 3.555 1.602 9.254-3.075 20.48-8 28.188-2.319 3.163-4.698 5.64-8 7.812l-1.813 1.25c-4.375 1.5-8.898.949-13.386.257-5.639-.752-11.244-.807-16.927-.857-1.38-.017-2.76-.044-4.14-.082a328.014 328.014 0 0 0-6.027-.091l-3.61-.06c-3.274.311-3.274.311-5.43 2.955C271.032 174.987 268.213 190.186 267 206c-7.96-.737-15.89-1.686-23.822-2.675-2.108-.262-4.216-.519-6.324-.776-6.765-.836-13.473-1.796-20.171-3.074-5.095-.902-10.234-1.484-15.37-2.1l-3.319-.406c-2.664-.326-5.329-.649-7.994-.969-3.006-9.018 3.772-22.78 6.938-31.25l.714-1.93a409.364 409.364 0 0 1 11.598-28.007l1.426-3.125c8.886-18.89 8.886-18.89 17.137-24.313l2.832-1.914C233 104 233 104 235 103c.522-2.424.94-4.803 1.313-7.25C238.689 81.782 244.232 68.203 253 57Z"/><path fill="#010101" d="M65 256c-1.394 3.172-3.018 5.226-5.52 7.61l-2.1 2.038a1882.759 1882.759 0 0 1-4.35 4.157c-9.91 9.643-15.177 20.382-15.405 34.445.451 12.781 4.362 24.467 13.344 33.941 11.651 10.375 24.28 13.335 39.531 13.372 28.514.552 58.827 6.248 82.5 23.437v1c-15.16.047-30.322.082-45.482.104-7.041.01-14.082.024-21.122.047-6.802.022-13.603.034-20.405.039-2.588.003-5.176.01-7.763.021-3.64.015-7.28.017-10.92.016l-3.202.022c-19.582-.053-19.582-.053-23.847-3.764L39 371l-2.063-.938C35 369 35 369 34.087 367.156c-1.188-2.36-2.56-3.831-4.398-5.719C23.803 354.84 20.224 346.894 20 338l-.152-3.266c-.311-11.882 1.016-23.125 5.777-34.109 2.273-5.397 2.712-9.93 2.813-15.688.202-8.96 2.167-16.205 8.445-22.964 5.104-4.539 8.47-5.309 15.117-4.973l3.813.625C59.864 258.102 61.007 256 65 256Z"/><path fill="#CB6633" d="M269.488 120.578c2.512.422 2.512.422 4.18 2.031l1.52 2.141c4.677 5.748 10.155 7.737 17.375 8.75 6.555-.953 11.575-3.804 16.812-7.75 5.078-3.492 9.624-3.812 15.625-2.75 2.887 1.043 5.388 2.406 8 4 2.969 1.686 5.351 2.325 8.75 2.625l2.422.227L346 130c-.705 10.34-5.249 20.097-13 27-5.56 3.786-10.814 3.494-17.195 2.504-5.64-.747-11.247-.804-16.93-.854-1.38-.017-2.76-.044-4.14-.082a328.014 328.014 0 0 0-6.028-.091l-3.61-.06c-3.274.311-3.274.311-5.43 2.955-6.083 9.591-9.512 20.276-11.14 31.44L268 195l-2 1-.367-2.273c-.814-4.972-1.652-9.923-2.695-14.852-1.96-9.715-2.147-19.425-2.188-29.313l-.063-3.775c-.074-17.645-.074-17.645 4.762-23.56C267 121 267 121 269.489 120.579Z"/><path fill="#6C7077" d="M189 189c.553 2.076 1 3.844 1 6l2.528.32c15.284 1.937 30.552 3.911 45.778 6.265 5.584.86 11.17 1.701 16.756 2.54l3.39.518A292.17 292.17 0 0 0 279 207c-.425 7.867-1.025 15.362-3 23h-3l-1 2v-2l-3.68-.297c-11.398-.975-22.646-2.439-33.943-4.241-5.95-.946-11.886-1.817-17.877-2.462-11.554-1.272-23.022-3.181-34.5-5l-1 4v-4h-2c-.32-7.855.643-15.27 2-23h7l1-6Z"/><path fill="#CB6633" d="M366.75 348.875c1.453.728 2.906 1.454 4.36 2.18l2.036 1.026c2.252 1.116 4.46 2.147 6.854 2.919l2-1 .313 2.25c.467 2.777.467 2.777 2.25 4.5 2.241 3.509 1.964 7.195 1.437 11.25a199.125 199.125 0 0 1-2 5 4370.8 4370.8 0 0 1-28.191-.132c-4.364-.034-8.728-.06-13.092-.064-4.215-.004-8.429-.032-12.644-.077a440.96 440.96 0 0 0-4.814-.013c-14.148.03-14.148.03-18.675-3.07-3.64-3.724-4.875-5.759-4.897-10.894.074-5.002.972-8.362 3.313-12.75l13 1v2c9.166.113 16.184-1.83 24.466-5.56 9.079-3.939 15.633-3.086 24.284 1.435Z"/><path fill="#030302" d="M307.8 306.73c6.729-.367 10.983.39 16.352 4.57 3.832 3.524 6.028 6.527 6.41 11.762-.511 10.46-6.208 21.584-13.562 28.938-5.849-.364-11.222-1.745-16.813-3.438l-2.271-.658c-3.35-.997-5.988-1.952-8.916-3.904l.26-1.83c2.295-16.038 2.295-16.038 3.74-32.17 4.976-2.071 9.44-2.754 14.8-3.27Z"/><path fill="#C96635" d="M280 252c2.277 2.277 2.69 3.683 3.621 6.734l.892 2.908.925 3.108.947 3.177c4.057 13.78 6.143 26.722 6.615 41.073l3 1h-3l.035 2.414c.09 10.524.09 10.524-1.035 15.586-4.63-1.85-5.948-4.646-8.043-9-1.406-4.407-1.137-8.45-.742-13.02-.279-3.868-1.44-5.328-4.215-7.98-2.092-.795-2.092-.795-4.313-.938-5.178-.905-8.243-3.149-11.687-7.062-2.64-4.246-2.649-9.138-2-14 2.077-4.846 5.248-6.906 9.5-9.75 5.657-3.897 7.815-7.67 9.5-14.25Z"/><path fill="#040303" d="M182 218c7.052.479 14.012 1.406 21 2.438 6.886 1.016 13.76 1.89 20.688 2.562 6.923.677 13.731 1.679 20.58 2.89 6.303 1.094 12.62 1.835 18.984 2.464 3.078.31 5.802.664 8.748 1.646 1.387 2.363 1.387 2.363 2.688 5.313l1.324 2.925C277 241 277 241 277 245c-3.559-1.693-6.872-3.723-10.25-5.75-19.359-11.335-42.885-16.024-64.938-10.625-6.473 1.694-12.351 4.204-18.335 7.203C181 237 181 237 179 237c-.337-6.963.697-12.433 3-19Z"/><path fill="#050504" d="M263 57h1c.438 13.388-.87 26.673-2 40l-9 1c-1.665-27.181-1.665-27.181 8-39l2-2Z"/><path fill="#422B20" d="M55 377h328v1H55v-1Z"/><path fill="#070707" d="m221 223 2.909.365c6.486.813 12.973 1.623 19.461 2.415 2.782.34 5.563.682 8.344 1.025 1.422.174 2.844.348 4.267.52 2.096.255 4.192.513 6.289.773l3.706.453C269 229 269 229 272 230c1.387 2.363 1.387 2.363 2.688 5.313l1.324 2.925C277 241 277 241 277 245c-3.559-1.693-6.872-3.723-10.25-5.75-11.872-6.951-24.037-11.097-37.754-11.969C226 227 226 227 223 226v-2l-2-1Z"/><path fill="#1A1A1A" d="M287 108c3.536.536 3.536.536 5 2 .188 2.938.188 2.938 0 6l-2 2c-3.536-.536-3.536-.536-5-2-.188-2.938-.188-2.938 0-6l2-2Z"/><path fill="#C16333" d="M284.125 100.875 287 101v6c-4.43 2.092-4.43 2.092-7.313 1.625L278 108c1.093-6.924 1.093-6.924 6.125-7.125Z"/><path fill="#0B0B0C" d="m221 223 3.184.402c7.267.916 14.533 1.818 21.816 2.598-3.84 2.617-7.65 2.057-12.063 1.688l-2.181-.147c-3.103-.228-5.793-.553-8.756-1.541v-2l-2-1Z"/><path fill="#FFE8D1" d="M6 203h1c.12 6.4-.35 12.635-1 19a2440.743 2440.743 0 0 1-1 10H4c-.25-9.944.305-19.178 2-29Z"/><path fill="#1D1D1F" d="m221 223 12 1-2 3-8-1v-2l-2-1Z"/><path fill="#FFE8D1" d="M418 229h1v18h-1v-18ZM186 32v1c-1.728.339-3.458.67-5.188 1l-2.917.563c-2.688.406-5.183.516-7.895.437 5.274-2.93 10.027-3.117 16-3ZM4 243h1v15H4v-15Z"/><path d="M18 323h1v14h-1v-14Z"/><path fill="#FFE8D1" d="M417 217h1v12h-1v-12ZM417 247h1v11h-1v-11ZM3 233h1v10H3v-10Z"/><path fill="#C63" d="M387 363h1v9h-1v-9Z"/><path fill="#FFE8D1" d="M11 181c.625 1.813.625 1.813 1 4l-2 3 1-7ZM6 265h1v7H6v-7ZM5 258h1v7H5v-7ZM416 206h1v7h-1v-7Z"/><path d="M49 376h6v1h-6v-1ZM20 346l2 2-1 3-1-5Z"/><path fill="#FFE8D1" d="M416 263h1v6h-1v-6ZM237 32h6v1h-6v-1Z"/><path d="m31 364 3 3-3-1v-2Z"/><path fill="#C63" d="m382 357 3 1-1 2-2-3Z"/><path d="M19 341h1v5h-1v-5Z"/><path fill="#FFE8D1" d="M414 274h1v5h-1v-5ZM415 269h1v5h-1v-5ZM415 201h1v5h-1v-5ZM7 197h1v5H7v-5ZM405 166l2 1-1 3-1-4ZM64 91l2 1-3 2 1-3ZM384 350v3Z"/><path d="m19 315 1 4Z"/><path fill="#FFE8D1" d="m9 282 1 4ZM413 281l1 4ZM8 278l1 4ZM7 274l1 4ZM414 197l1 4ZM8 193l1 4ZM413 191l1 4ZM9 189l1 4ZM412 187l1 4ZM410 179l1 4ZM407 170l1 4ZM396 145l2 1-1 2-1-3ZM33 131v3ZM384 124l2 1-1 2-1-3ZM377 114l2 1-1 2-1-3ZM374 110l2 1-1 2-1-3ZM164 35l4 1ZM66 89l2 1-2 1v-2ZM284 44l3 1ZM281 43l3 1ZM147 40l3 1ZM150 39l3 1ZM262 37l3 1Z"/><path d="m47 375 2 1Z"/><path fill="#FFE8D1" d="m315 59 2 1ZM294 48l2 1ZM279 42l2 1ZM141 42l2 1Z"/></svg>